<svg xmlns="http://www.w3.org/2000/svg">
<defs>
<font id="Onomber" horiz-adv-x="1300" >
  <font-face 
    font-family="Onomber"
    font-weight="400"
    font-stretch="normal"
    units-per-em="2048"
    panose-1="2 0 5 0 0 0 0 0 0 0"
    ascent="1638"
    descent="-410"
    x-height="1000"
    cap-height="1200"
    bbox="0 -200 1200 1400"
    underline-thickness="150"
    underline-position="-292"
    unicode-range="U+001D-007E"
  />
<missing-glyph 
d="M581 1199h27q288 0 484 -258q107 -160 107 -326v-34q0 -270 -247 -471q-167 -110 -334 -110h-27q-288 0 -484 258q-107 160 -107 326v34q0 270 247 471q167 110 334 110zM82 756h4q591 -4 931 -4h100q-81 227 -251 313q-119 72 -254 72h-28q-230 0 -402 -196
q-75 -97 -100 -185zM570 1075l24 -24l28 24q4 0 27 -27q-5 0 -24 -24v-4q0 -5 24 -24q0 5 24 24h4q5 0 24 -24v-3q0 -5 -24 -24h-4l-27 24l-21 -24q24 -26 24 -31l-27 -24l-28 24l-27 -24l-24 27l24 28q-22 24 -24 24l-28 -24q-4 0 -27 27l27 24l28 -24l24 28q-5 0 -24 24
q0 4 27 27zM594 1048l-24 -28l28 -24q0 2 20 24v4q0 5 -24 24zM594 993l-24 -28q23 -20 24 -20q5 0 24 24q0 5 -24 24zM275 866h10l24 -7v-7l-7 -10q-19 3 -27 3q-14 -3 -14 -20q0 -16 17 -21q22 7 24 7l11 -14q-12 -9 -31 -14q-45 8 -45 42q6 41 38 41zM320 866h17
q7 -1 7 -7v-24h24v31h24v-79h-24v27h-24v-27h-24v79zM409 866h55v-21h-38v-10h38v-14q0 -7 -7 -7l-7 4l-7 -4l-17 4v-11h34q7 -1 7 -7v-13h-65v72q1 7 7 7zM515 866q45 -6 45 -38l-7 -28q7 -1 7 -6q0 -6 -14 -14q-8 7 -10 7q-19 -4 -28 -4q-28 0 -37 42q0 41 44 41zM574 866
h10q7 -1 7 -7v-34q2 -21 10 -21h7q5 0 10 10v45l4 7l7 -4h3l7 4l3 -7v-41q-4 -35 -34 -35h-7q-31 0 -34 42v34q1 7 7 7zM656 866h7l21 -4q6 4 10 4q7 -4 10 -4q7 4 11 4v-17q0 -7 -7 -7q-6 3 -14 3v-3l-7 3h-10v-10h38v-14q0 -7 -7 -7h-31v-10h10q4 0 4 3l6 -3h7q4 0 4 3
q6 -3 10 -3v-17h-17l-21 -4q-5 4 -17 4v-4q-7 4 -10 4v62zM732 866l24 -4v4q41 -6 41 -28q-3 -24 -17 -24l20 -27l-6 -4h-14q-3 0 -28 28h-3v-14l3 -7l-6 -3h-21v3q0 7 3 7l-3 24l3 34h-3q3 11 7 11zM807 862h62v-13q0 -7 -7 -7h-31v-7h35v-21h-35v-10h38v-14q0 -7 -7 -7

<glyph glyph-name=".notdef" 
d="M581 1199h27q288 0 484 -258q107 -160 107 -326v-34q0 -270 -247 -471q-167 -110 -334 -110h-27q-288 0 -484 258q-107 160 -107 326v34q0 270 247 471q167 110 334 110zM82 756h4q591 -4 931 -4h100q-81 227 -251 313q-119 72 -254 72h-28q-230 0 -402 -196
q-75 -97 -100 -185zM570 1075l24 -24l28 24q4 0 27 -27q-5 0 -24 -24v-4q0 -5 24 -24q0 5 24 24h4q5 0 24 -24v-3q0 -5 -24 -24h-4l-27 24l-21 -24q24 -26 24 -31l-27 -24l-28 24l-27 -24l-24 27l24 28q-22 24 -24 24l-28 -24q-4 0 -27 27l27 24l28 -24l24 28q-5 0 -24 24
q0 4 27 27zM594 1048l-24 -28l28 -24q0 2 20 24v4q0 5 -24 24zM594 993l-24 -28q23 -20 24 -20q5 0 24 24q0 5 -24 24zM275 866h10l24 -7v-7l-7 -10q-19 3 -27 3q-14 -3 -14 -20q0 -16 17 -21q22 7 24 7l11 -14q-12 -9 -31 -14q-45 8 -45 42q6 41 38 41zM320 866h17
q7 -1 7 -7v-24h24v31h24v-79h-24v27h-24v-27h-24v79zM409 866h55v-21h-38v-10h38v-14q0 -7 -7 -7l-7 4l-7 -4l-17 4v-11h34q7 -1 7 -7v-13h-65v72q1 7 7 7zM515 866q45 -6 45 -38l-7 -28q7 -1 7 -6q0 -6 -14 -14q-8 7 -10 7q-19 -4 -28 -4q-28 0 -37 42q0 41 44 41zM574 866
h10q7 -1 7 -7v-34q2 -21 10 -21h7q5 0 10 10v45l4 7l7 -4h3l7 4l3 -7v-41q-4 -35 -34 -35h-7q-31 0 -34 42v34q1 7 7 7zM656 866h7l21 -4q6 4 10 4q7 -4 10 -4q7 4 11 4v-17q0 -7 -7 -7q-6 3 -14 3v-3l-7 3h-10v-10h38v-14q0 -7 -7 -7h-31v-10h10q4 0 4 3l6 -3h7q4 0 4 3
q6 -3 10 -3v-17h-17l-21 -4q-5 4 -17 4v-4q-7 4 -10 4v62zM732 866l24 -4v4q41 -6 41 -28q-3 -24 -17 -24l20 -27l-6 -4h-14q-3 0 -28 28h-3v-14l3 -7l-6 -3h-21v3q0 7 3 7l-3 24l3 34h-3q3 11 7 11zM807 862h62v-13q0 -7 -7 -7h-31v-7h35v-21h-35v-10h38v-14q0 -7 -7 -7
h-48q-7 0 -7 7v72zM879 862h42q31 0 34 -41q0 -36 -55 -38h-14q-7 0 -7 7v72zM495 821q4 -17 24 -17q17 5 17 24q-7 16 -14 17h-14q-13 -5 -13 -24zM749 845v-17h17q7 0 7 7v3q0 7 -7 7h-17zM904 842v-38h3q18 0 24 14v13q0 5 -10 11h-17zM179 584v-7q11 -58 55 -58h34
q17 9 17 27v14q-14 0 -14 17q0 35 66 35q0 4 13 6v-3q-64 -213 -82 -216h-7q-8 0 -10 17q0 6 17 37q-17 31 -45 31h-10q-55 -7 -55 -55v-6q0 -50 62 -73q18 -3 34 -3h14q108 0 141 148q20 45 72 196q-17 10 -45 10h-20q-27 0 -52 -31q-44 -19 -134 -31q-51 -18 -51 -55z
M684 395l-4 7v10q0 16 28 117q-9 34 -38 34h-24q-15 0 -55 -17v7l3 7q-13 7 -37 7h-35q-30 0 -41 -38q-55 -170 -55 -179q21 -10 58 -10q52 0 52 52q35 113 48 113q10 0 10 3q14 -5 14 -10q-31 -80 -31 -106v-7q0 -34 48 -41q35 0 93 30l-7 -20q14 -14 48 -14q59 0 59 28
q18 137 65 137h10q7 -1 7 -7v-3q0 -23 -45 -45l-3 -17q0 -89 72 -89q75 0 124 92l-14 11h-7q-30 -52 -68 -52h-7q-21 9 -21 31v14l48 31q17 31 17 48v7q0 35 -51 41q-14 0 -72 -21q0 4 -4 4q52 132 52 137q-17 10 -52 10h-31q-26 0 -34 -58q-9 -11 -69 -203q-38 -41 -51 -41
zM179 268v-3q174 -203 408 -203h28q215 0 385 175q20 24 20 28q-431 3 -642 3h-199zM443 210h35v-7h-28v-17h28v-7h-28v-14h24q7 -1 7 -7h-38v52zM498 210h17q5 0 11 -11h-4l-20 4q-7 -1 -7 -7v-7q34 -3 34 -17q-5 -17 -24 -17q-21 7 -21 13l7 4q0 -8 17 -11l14 7
q0 11 -34 18v13q0 5 10 11zM529 210h41v-7h-17v-45h-7v45h-17v7zM615 210q10 0 21 -14q0 -16 -35 -21l-3 -7q1 -7 7 -7h27v-6h-24l-17 3v3q0 25 24 25h10q0 3 4 10l-11 7h-10l-14 -11v7q4 11 21 11zM663 210h3q6 0 14 -14v-28q-5 -13 -24 -13q-17 4 -17 24v7q0 24 24 24z
M704 210v-49h11q0 -6 -7 -6h-17v6h6v38h-6v7q7 0 13 4zM721 210h31q7 -2 7 -7h-31v-14h21q7 -2 14 -17q-5 -17 -24 -17q-18 2 -18 10v7l14 -11h11q4 0 10 11q0 5 -10 10h-25v28zM646 192v-20q0 -5 10 -11h7q5 0 10 11v20q0 5 -10 11h-7q-5 0 -10 -11z" />
    <glyph glyph-name=".null" horiz-adv-x="0" 
 />
    <glyph glyph-name=".null" horiz-adv-x="0" 
 />
    <glyph glyph-name="nonmarkingreturn" horiz-adv-x="508" 
 />
    <glyph glyph-name="space" unicode=" " horiz-adv-x="508" 
 />
    <glyph glyph-name="space" unicode="&#xa0;" horiz-adv-x="508" 
 />
    <glyph glyph-name="exclam" unicode="!" horiz-adv-x="300" 
d="M200 300h-200v900h200v-900zM200 0h-200v200h200v-200z" />
    <glyph glyph-name="quotedbl" unicode="&#x22;" horiz-adv-x="600" 
d="M200 800h-200v400h200v-400zM500 800h-200v400h200v-400z" />
    <glyph glyph-name="numbersign" unicode="#" 
d="M300 500v200h-300v200h300v300h200v-300h200v300h200v-300h300v-200h-300v-200h300v-200h-300v-300h-200v300h-200v-300h-200v300h-300v200h300zM500 700v-200h200v200h-200z" />
    <glyph glyph-name="dollar" unicode="$" 
d="M700 0v-200h-200v200h-500v200h500v300h-150q-145 0 -247.5 102.5t-102.5 247.5t102.5 247.5t247.5 102.5h150v200h200v-200h100v-200h-100v-300h150q145 0 247.5 -102.5t102.5 -247.5t-102.5 -247.5t-247.5 -102.5h-150zM500 1000h-150q-62 0 -106 -44t-44 -106t44 -106
t106 -44h150v300zM700 200h150q62 0 106 44t44 106t-44 106t-106 44h-150v-300z" />
    <glyph glyph-name="percent" unicode="%" 
d="M1000 949v251h200v-367l-1000 -578v-255h-200v370zM200 1000h-200v200h200v-200zM1200 0h-200v200h200v-200z" />
    <glyph glyph-name="ampersand" unicode="&#x26;" 
d="M350 0q-145 0 -247.5 102.5t-102.5 247.5t103 248l2 2q-1 1 -2 3q-103 102 -103 247t102.5 247.5t247.5 102.5h350v-200h-350q-62 0 -106 -44t-44 -106t44 -106t106 -44h450v200h200v-200h200v-200h-200v-300h200v-200h-850zM800 200v300h-450q-62 0 -106 -44t-44 -106
t44 -106t106 -44h450z" />
    <glyph glyph-name="quotesingle" unicode="'" horiz-adv-x="300" 
d="M200 800h-200v400h200v-400z" />
    <glyph glyph-name="parenleft" unicode="(" horiz-adv-x="700" 
d="M0 700q0 249 175.5 424.5t424.5 175.5v-200q-166 0 -283 -117t-117 -283v-200q0 -166 117 -283t283 -117v-200q-249 0 -424.5 175.5t-175.5 424.5v200z" />
    <glyph glyph-name="parenright" unicode=")" horiz-adv-x="700" 
d="M600 500q0 -249 -175.5 -424.5t-424.5 -175.5v200q166 0 283 117t117 283v200q0 166 -117 283t-283 117v200q249 0 424.5 -175.5t175.5 -424.5v-200z" />
    <glyph glyph-name="asterisk" unicode="*" horiz-adv-x="900" 
d="M500 626v-226h-200v226l-196 -113l-100 174l195 113l-195 113l100 174l196 -113v226h200v-226l196 113l100 -174l-195 -113l195 -113l-100 -174z" />
    <glyph glyph-name="plus" unicode="+" horiz-adv-x="900" 
d="M500 700h300v-200h-300v-300h-200v300h-300v200h300v300h200v-300z" />
    <glyph glyph-name="comma" unicode="," horiz-adv-x="300" 
d="M200 -200h-200v400h200v-400z" />
    <glyph glyph-name="hyphen" unicode="-" horiz-adv-x="800" 
d="M700 500h-700v200h700v-200z" />
    <glyph glyph-name="hyphen" unicode="&#xad;" horiz-adv-x="800" 
d="M700 500h-700v200h700v-200z" />
    <glyph glyph-name="period" unicode="." horiz-adv-x="300" 
d="M200 0h-200v200h200v-200z" />
    <glyph glyph-name="slash" unicode="/" 
d="M1000 949v251h200v-367l-1000 -578v-255h-200v370z" />
    <glyph glyph-name="zero" unicode="0" 
d="M600 0q-249 0 -424.5 175.5t-175.5 424.5t175.5 424.5t424.5 175.5t424.5 -175.5t175.5 -424.5t-175.5 -424.5t-424.5 -175.5zM600 200q166 0 283 117t117 283t-117 283t-283 117t-283 -117t-117 -283t117 -283t283 -117z" />
    <glyph glyph-name="one" unicode="1" horiz-adv-x="500" 
d="M400 0h-200v1000h-200v200h400v-1200z" />
    <glyph glyph-name="two" unicode="2" 
d="M1200 200v-200h-850q-145 0 -247.5 102.5t-102.5 247.5t102.5 247.5t247.5 102.5h500q62 0 106 44t44 106t-44 106t-106 44h-450v200h450q145 0 247.5 -102.5t102.5 -247.5t-102.5 -247.5t-247.5 -102.5h-500q-62 0 -106 -44t-44 -106t44 -106t106 -44h850z" />
    <glyph glyph-name="three" unicode="3" 
d="M0 0v200h850q62 0 106 44t44 106t-44 106t-106 44h-850v200h850q62 0 106 44t44 106t-44 106t-106 44h-350v200h350q145 0 247.5 -102.5t102.5 -247.5t-102 -247l-3 -3q1 -1 3 -2q102 -103 102 -248t-102.5 -247.5t-247.5 -102.5h-850z" />
    <glyph glyph-name="four" unicode="4" 
d="M0 1200h200v-500h-200v500zM800 500v700h200v-700h200v-200h-200v-300h-200v300h-800v200h800z" />
    <glyph glyph-name="five" unicode="5" 
d="M1200 1200v-200h-1000v-300h650q145 0 247.5 -102.5t102.5 -247.5t-102.5 -247.5t-247.5 -102.5h-450v200h450q62 0 106 44t44 106t-44 106t-106 44h-850v700h1200z" />
    <glyph glyph-name="six" unicode="6" 
d="M212 500q25 -103 105 -183q117 -117 283 -117h250q62 0 106 44t44 106t-44 106t-106 44h-638zM600 1200h200v-200h-200q-166 0 -283 -117q-80 -80 -105 -183h638q145 0 247.5 -102.5t102.5 -247.5t-102.5 -247.5t-247.5 -102.5h-250q-249 0 -424.5 175.5t-175.5 424.5
t175.5 424.5t424.5 175.5z" />
    <glyph glyph-name="seven" unicode="7" 
d="M1000 1000h-1000v200h1200v-367l-1000 -578v-255h-200v370l1000 579v51z" />
    <glyph glyph-name="eight" unicode="8" 
d="M850 200q62 0 106 44t44 106t-44 106t-106 44h-500q-62 0 -106 -44t-44 -106t44 -106t106 -44h500zM350 1000q-62 0 -106 -44t-44 -106t44 -106t106 -44h500q62 0 106 44t44 106t-44 106t-106 44h-500zM350 0q-145 0 -247.5 102.5t-102.5 247.5t103 248l2 2q-1 1 -2 3
q-103 102 -103 247t102.5 247.5t247.5 102.5h500q145 0 247.5 -102.5t102.5 -247.5t-102 -247l-3 -3q1 -1 3 -2q102 -103 102 -248t-102.5 -247.5t-247.5 -102.5h-500z" />
    <glyph glyph-name="nine" unicode="9" 
d="M988 700q-25 103 -105 183q-117 117 -283 117h-250q-62 0 -106 -44t-44 -106t44 -106t106 -44h638zM600 0h-200v200h200q166 0 283 117q80 80 105 183h-638q-145 0 -247.5 102.5t-102.5 247.5t102.5 247.5t247.5 102.5h250q249 0 424.5 -175.5t175.5 -424.5
t-175.5 -424.5t-424.5 -175.5z" />
    <glyph glyph-name="colon" unicode=":" horiz-adv-x="300" 
d="M200 0h-200v200h200v-200zM200 800h-200v200h200v-200z" />
    <glyph glyph-name="semicolon" unicode=";" horiz-adv-x="300" 
d="M200 -200h-200v400h200v-400zM200 800h-200v200h200v-200z" />
    <glyph glyph-name="semicolon" unicode="&#x37e;" horiz-adv-x="300" 
d="M200 -200h-200v400h200v-400zM200 800h-200v200h200v-200z" />
    <glyph glyph-name="less" unicode="&#x3c;" horiz-adv-x="700" 
d="M0 600l369 600h231l-369 -600l369 -600h-231z" />
    <glyph glyph-name="equal" unicode="=" horiz-adv-x="800" 
d="M700 300h-700v200h700v-200zM700 700h-700v200h700v-200z" />
    <glyph glyph-name="greater" unicode="&#x3e;" horiz-adv-x="700" 
d="M600 600l-369 -600h-231l369 600l-369 600h231z" />
    <glyph glyph-name="question" unicode="?" 
d="M400 0h-200v200h200v-200zM0 1000v200h850q145 0 247.5 -102.5t102.5 -247.5t-102.5 -247.5t-247.5 -102.5h-450v-200h-200v400h650q62 0 106 44t44 106t-44 106t-106 44h-850z" />
    <glyph glyph-name="at" unicode="@" 
d="M600 200h600v-200h-600q-249 0 -424.5 175.5t-175.5 424.5t175.5 424.5t424.5 175.5h600v-800h-600q-83 0 -141.5 58.5t-58.5 141.5t58.5 141.5t141.5 58.5h400v200h-400q-166 0 -283 -117t-117 -283t117 -283t283 -117z" />
    <glyph glyph-name="A" unicode="A" 
d="M200 600v-600h-200v600q0 249 175.5 424.5t424.5 175.5t424.5 -175.5t175.5 -424.5v-600h-200v300h-500v200h500v100q0 166 -117 283t-283 117t-283 -117t-117 -283z" />
    <glyph glyph-name="B" unicode="B" 
d="M200 200h650q62 0 106 44t44 106t-44 106t-106 44h-350v200h350q62 0 106 44t44 106t-44 106t-106 44h-650v-800zM0 0v1200h850q145 0 247.5 -102.5t102.5 -247.5t-102 -247l-3 -3q1 -1 3 -2q102 -103 102 -248t-102.5 -247.5t-247.5 -102.5h-850z" />
    <glyph glyph-name="C" unicode="C" 
d="M600 1200h600v-200h-600q-166 0 -283 -117t-117 -283t117 -283t283 -117h600v-200h-600q-249 0 -424.5 175.5t-175.5 424.5t175.5 424.5t424.5 175.5z" />
    <glyph glyph-name="D" unicode="D" 
d="M600 200q166 0 283 117t117 283t-117 283t-283 117h-400v-800h400zM600 1200q249 0 424.5 -175.5t175.5 -424.5t-175.5 -424.5t-424.5 -175.5h-600v1200h600z" />
    <glyph glyph-name="E" unicode="E" 
d="M1200 500h-700v200h700v-200zM200 200h1000v-200h-1200v1200h1200v-200h-1000v-800z" />
    <glyph glyph-name="F" unicode="F" 
d="M1200 500h-700v200h700v-200zM1200 1200v-200h-1000v-1000h-200v1200h1200z" />
    <glyph glyph-name="G" unicode="G" 
d="M600 1200h600v-200h-600q-166 0 -283 -117t-117 -283t117 -283t283 -117h400v300h-400v200h600v-700h-600q-249 0 -424.5 175.5t-175.5 424.5t175.5 424.5t424.5 175.5z" />
    <glyph glyph-name="H" unicode="H" 
d="M200 0h-200v1200h200v-1200zM1200 0h-200v500h-700v200h700v500h200v-1200z" />
    <glyph glyph-name="I" unicode="I" horiz-adv-x="300" 
d="M200 0h-200v1200h200v-1200z" />
    <glyph glyph-name="J" unicode="J" 
d="M1200 600q0 -249 -175.5 -424.5t-424.5 -175.5t-424.5 175.5t-175.5 424.5h200q0 -166 117 -283t283 -117t283 117t117 283v600h200v-600z" />
    <glyph glyph-name="K" unicode="K" 
d="M200 0h-200v1200h200v-1200zM680 500h-380v200h550q62 0 106 44t44 106v350h200v-350q0 -145 -102 -247q-82 -82 -190 -99l292 -504h-231z" />
    <glyph glyph-name="L" unicode="L" 
d="M200 200h1000v-200h-1200v1200h200v-1000z" />
    <glyph glyph-name="M" unicode="M" 
d="M200 853v-853h-200v1200l600 -349l600 349v-1200h-200v853l-400 -233z" />
    <glyph glyph-name="N" unicode="N" 
d="M200 852v-852h-200v1200l2 -2l998 -577v579h200v-1200h-200v390z" />
    <glyph glyph-name="O" unicode="O" 
d="M600 200q166 0 283 117t117 283t-117 283t-283 117t-283 -117t-117 -283t117 -283t283 -117zM600 0q-249 0 -424.5 175.5t-175.5 424.5t175.5 424.5t424.5 175.5t424.5 -175.5t175.5 -424.5t-175.5 -424.5t-424.5 -175.5z" />
    <glyph glyph-name="P" unicode="P" 
d="M200 1000v-1000h-200v1200h850q145 0 247.5 -102.5t102.5 -247.5t-102.5 -247.5t-247.5 -102.5h-350v200h350q62 0 106 44t44 106t-44 106t-106 44h-650z" />
    <glyph glyph-name="Q" unicode="Q" 
d="M867 302q8 7 16 15q117 117 117 283t-117 283t-283 117t-283 -117t-117 -283t117 -283t283 -117q47 0 90 9l-168 291h231zM794 30q-91 -30 -194 -30q-249 0 -424.5 175.5t-175.5 424.5t175.5 424.5t424.5 175.5t424.5 -175.5t175.5 -424.5t-175 -424q-27 -27 -56 -50
l131 -226h-231z" />
    <glyph glyph-name="R" unicode="R" 
d="M200 1000v-1000h-200v1200h850q145 0 247.5 -102.5t102.5 -247.5t-102 -247q-82 -82 -190 -99l292 -504h-231l-289 500h-180v200h350q62 0 106 44t44 106t-44 106t-106 44h-650z" />
    <glyph glyph-name="S" unicode="S" 
d="M0 0v200h850q62 0 106 44t44 106t-44 106t-106 44h-500q-145 0 -247.5 102.5t-102.5 247.5t102.5 247.5t247.5 102.5h450v-200h-450q-62 0 -106 -44t-44 -106t44 -106t106 -44h500q145 0 247.5 -102.5t102.5 -247.5t-102.5 -247.5t-247.5 -102.5h-850z" />
    <glyph glyph-name="T" unicode="T" 
d="M1200 1200v-200h-500v-1000h-200v1000h-500v200h1200z" />
    <glyph glyph-name="U" unicode="U" 
d="M0 600v600h200v-600q0 -166 117 -283t283 -117t283 117t117 283v600h200v-600q0 -249 -175.5 -424.5t-424.5 -175.5t-424.5 175.5t-175.5 424.5z" />
    <glyph glyph-name="V" unicode="V" 
d="M0 1200h200v-736l400 -233l400 233v736h200v-850l-600 -350l-600 350v850z" />
    <glyph glyph-name="W" unicode="W" 
d="M0 1200h200v-852l400 233l400 -233v852h200v-1200l-600 350l-600 -350v1200z" />
    <glyph glyph-name="X" unicode="X" 
d="M200 255v-255h-200v370l400 232l-400 231v367h200v-251l400 -231l400 231v251h200v-367l-400 -231l400 -232v-370h-200v255l-400 231z" />
    <glyph glyph-name="Y" unicode="Y" 
d="M0 1000v200h200v-200q0 -166 117 -283t283 -117t283 117t117 283v200h200v-200q0 -249 -175 -424q-140 -140 -325 -168v-208h500v-200h-1200v200h500v208q-185 28 -324 168q-176 175 -176 424z" />
    <glyph glyph-name="Z" unicode="Z" 
d="M1200 833l-1000 -578v-55h1000v-200h-1200v370l1000 579v51h-1000v200h1200v-367z" />
    <glyph glyph-name="bracketleft" unicode="[" horiz-adv-x="700" 
d="M0 1300h600v-200h-400v-1000h400v-200h-600v1400z" />
    <glyph glyph-name="backslash" unicode="\" 
d="M1000 251l-1000 579v370h200v-255l1000 -578v-367h-200v251z" />
    <glyph glyph-name="bracketright" unicode="]" horiz-adv-x="700" 
d="M600 -100h-600v200h400v1000h-400v200h600v-1400z" />
    <glyph glyph-name="asciicircum" unicode="^" horiz-adv-x="300" 
d="M200 800h-200v400h200v-400z" />
    <glyph glyph-name="underscore" unicode="_" 
d="M1200 200v-200h-1200v200h1200z" />
    <glyph glyph-name="grave" unicode="`" horiz-adv-x="300" 
d="M200 800h-200v400h200v-400z" />
    <glyph glyph-name="a" unicode="a" horiz-adv-x="1100" 
d="M200 500v-500h-200v500q0 207 146.5 353.5t353.5 146.5t353.5 -146.5t146.5 -353.5v-500h-200v200h-400v200h400v100q0 124 -88 212t-212 88t-212 -88t-88 -212z" />
    <glyph glyph-name="b" unicode="b" horiz-adv-x="1100" 
d="M200 200h500q41 0 70.5 29.5t29.5 70.5t-29.5 70.5t-70.5 29.5h-300v200h300q41 0 70.5 29.5t29.5 70.5t-29.5 70.5t-70.5 29.5h-500v-600zM700 0h-700v1000h700q124 0 212 -88t88 -212q0 -116 -77 -200q77 -84 77 -200q0 -124 -88 -212t-212 -88z" />
    <glyph glyph-name="c" unicode="c" horiz-adv-x="1100" 
d="M500 1000h500v-200h-500q-124 0 -212 -88t-88 -212t88 -212t212 -88h500v-200h-500q-207 0 -353.5 146.5t-146.5 353.5t146.5 353.5t353.5 146.5z" />
    <glyph glyph-name="d" unicode="d" horiz-adv-x="1100" 
d="M500 200q124 0 212 88t88 212t-88 212t-212 88h-300v-600h300zM500 1000q207 0 353.5 -146.5t146.5 -353.5t-146.5 -353.5t-353.5 -146.5h-500v1000h500z" />
    <glyph glyph-name="e" unicode="e" horiz-adv-x="1100" 
d="M1000 400h-600v200h600v-200zM200 200h800v-200h-1000v1000h1000v-200h-800v-600z" />
    <glyph glyph-name="f" unicode="f" horiz-adv-x="1100" 
d="M1000 400h-600v200h600v-200zM1000 1000v-200h-800v-800h-200v1000h1000z" />
    <glyph glyph-name="g" unicode="g" horiz-adv-x="1100" 
d="M500 1000h500v-200h-500q-124 0 -212 -88t-88 -212t88 -212t212 -88h300v200h-300v200h500v-600h-500q-207 0 -353.5 146.5t-146.5 353.5t146.5 353.5t353.5 146.5z" />
    <glyph glyph-name="h" unicode="h" horiz-adv-x="1100" 
d="M200 0h-200v1000h200v-1000zM800 400h-500v200h500v400h200v-1000h-200v400z" />
    <glyph glyph-name="i" unicode="i" horiz-adv-x="300" 
d="M200 0h-200v1000h200v-1000z" />
    <glyph glyph-name="j" unicode="j" horiz-adv-x="1100" 
d="M1000 500q0 -207 -146.5 -353.5t-353.5 -146.5t-353.5 146.5t-146.5 353.5h200q0 -124 88 -212t212 -88t212 88t88 212v500h200v-500z" />
    <glyph glyph-name="k" unicode="k" horiz-adv-x="1100" 
d="M200 0h-200v1000h200v-1000zM765 407l235 -407h-231l-231 400h-238v200h400q41 0 70.5 29.5t29.5 70.5v300h200v-300q0 -124 -88 -212q-64 -64 -147 -81z" />
    <glyph glyph-name="l" unicode="l" horiz-adv-x="1100" 
d="M200 200h800v-200h-1000v1000h200v-800z" />
    <glyph glyph-name="m" unicode="m" horiz-adv-x="1100" 
d="M200 654v-654h-200v1000l500 -288l500 288v-1000h-200v654l-300 -173z" />
    <glyph glyph-name="n" unicode="n" horiz-adv-x="1100" 
d="M200 653v-653h-200v1000l2 -2l798 -461v463h200v-1000h-200v306z" />
    <glyph glyph-name="o" unicode="o" horiz-adv-x="1100" 
d="M500 200q124 0 212 88t88 212t-88 212t-212 88t-212 -88t-88 -212t88 -212t212 -88zM500 0q-207 0 -353.5 146.5t-146.5 353.5t146.5 353.5t353.5 146.5t353.5 -146.5t146.5 -353.5t-146.5 -353.5t-353.5 -146.5z" />
    <glyph glyph-name="p" unicode="p" horiz-adv-x="1100" 
d="M200 800v-800h-200v1000h700q124 0 212 -88t88 -212t-88 -212t-212 -88h-300v200h300q41 0 70.5 29.5t29.5 70.5t-29.5 70.5t-70.5 29.5h-500z" />
    <glyph glyph-name="q" unicode="q" horiz-adv-x="1100" 
d="M716 292q84 87 84 208q0 124 -88 212t-212 88t-212 -88t-88 -212t88 -212t212 -88q19 0 38 2l-138 238h231zM643 20q-67 -20 -143 -20q-207 0 -353.5 146.5t-146.5 353.5t146.5 353.5t353.5 146.5t353.5 -146.5t146.5 -353.5t-146 -353q-17 -17 -35 -32l101 -175h-231z
" />
    <glyph glyph-name="r" unicode="r" horiz-adv-x="1100" 
d="M200 800v-800h-200v1000h700q124 0 212 -88t88 -212t-88 -212q-64 -64 -147 -81l235 -407h-231l-231 400h-138v200h300q41 0 70.5 29.5t29.5 70.5t-29.5 70.5t-70.5 29.5h-500z" />
    <glyph glyph-name="s" unicode="s" horiz-adv-x="1100" 
d="M700 0h-700v200h700q41 0 70.5 29.5t29.5 70.5t-29.5 70.5t-70.5 29.5h-400q-124 0 -212 88t-88 212t88 212t212 88h400v-200h-400q-41 0 -70.5 -29.5t-29.5 -70.5t29.5 -70.5t70.5 -29.5h400q124 0 212 -88t88 -212t-88 -212t-212 -88z" />
    <glyph glyph-name="t" unicode="t" horiz-adv-x="1100" 
d="M600 800v-800h-200v800h-400v200h1000v-200h-400z" />
    <glyph glyph-name="u" unicode="u" horiz-adv-x="1100" 
d="M0 500v500h200v-500q0 -124 88 -212t212 -88t212 88t88 212v500h200v-500q0 -207 -146.5 -353.5t-353.5 -146.5t-353.5 146.5t-146.5 353.5z" />
    <glyph glyph-name="v" unicode="v" horiz-adv-x="1100" 
d="M800 385v615h200v-731l-500 -288l-500 288v731h200v-615l300 -173z" />
    <glyph glyph-name="w" unicode="w" horiz-adv-x="1100" 
d="M0 1000h200v-653l300 173l300 -173v653h200v-1000l-500 289l-500 -289v1000z" />
    <glyph glyph-name="x" unicode="x" horiz-adv-x="1100" 
d="M800 793v207h200v-323l-300 -173l300 -173v-331h-200v215l-300 174l-300 -174v-215h-200v331l300 173l-300 173v323h200v-207l300 -173z" />
    <glyph glyph-name="y" unicode="y" horiz-adv-x="1100" 
d="M0 800v200h200v-200q0 -124 88 -212t212 -88t212 88t88 212v200h200v-200q0 -207 -146 -353q-110 -110 -254 -138v-109h400v-200h-1000v200h400v109q-144 28 -253 138q-147 146 -147 353z" />
    <glyph glyph-name="z" unicode="z" horiz-adv-x="1100" 
d="M1000 677l-800 -462v-15h800v-200h-1000v331l800 462v7h-800v200h1000v-323z" />
    <glyph glyph-name="braceleft" unicode="{" horiz-adv-x="900" 
d="M400 500q0 -166 117 -283t283 -117v-200q-249 0 -424.5 175.5t-175.5 424.5h-200v200h200q0 249 175.5 424.5t424.5 175.5v-200q-166 0 -283 -117t-117 -283v-200z" />
    <glyph glyph-name="bar" unicode="|" horiz-adv-x="300" 
d="M200 0h-200v1200h200v-1200z" />
    <glyph glyph-name="braceright" unicode="}" horiz-adv-x="900" 
d="M400 700q0 166 -117 283t-283 117v200q249 0 424.5 -175.5t175.5 -424.5h200v-200h-200q0 -249 -175.5 -424.5t-424.5 -175.5v200q166 0 283 117t117 283v200z" />
    <glyph glyph-name="asciitilde" unicode="~" horiz-adv-x="800" 
d="M700 500h-700v200h700v-200z" />
  </font>
</defs>
</svg>
